<?xml version="1.0" encoding="utf-8"?>
<!-- Generator: Adobe Illustrator 23.0.1, SVG Export Plug-In . SVG Version: 6.00 Build 0)  -->
<svg version="1.1" id="Layer_1" xmlns="http://www.w3.org/2000/svg" xmlns:xlink="http://www.w3.org/1999/xlink" x="0px" y="0px"
	 viewBox="0 0 310 310" style="enable-background:new 0 0 310 310;" xml:space="preserve">
<style type="text/css">
	.st0{fill:#744C9E;}
</style>
<g>
	<path class="st0" d="M155,27C84.3,27,27,84.3,27,155c0,70.7,57.3,128,128,128c70.7,0,128-57.3,128-128S225.7,27,155,27z
		 M54.5,156.3l99.2,99.2C99.2,254.8,55.2,210.8,54.5,156.3z M177.5,253L57,132.5c10.2-44.7,50.2-78,98-78c33.4,0,63,16.3,81.3,41.4
		l-13.9,12.3c-14.8-21.3-39.5-35.2-67.3-35.2c-35.5,0-65.7,22.6-77.2,54.1l105.1,105.1c25.5-9.2,45.2-30.8,51.7-57.5h-43.6V155h45.9
		v0h18.5v0C255.5,202.8,222.2,242.8,177.5,253z"/>
</g>
</svg>
