<?xml version="1.0" encoding="utf-8"?>
<!-- Generator: Adobe Illustrator 23.0.1, SVG Export Plug-In . SVG Version: 6.00 Build 0)  -->
<svg version="1.1" id="Ebene_1" xmlns="http://www.w3.org/2000/svg" xmlns:xlink="http://www.w3.org/1999/xlink" x="0px" y="0px"
	 viewBox="0 0 250.5 250.7" style="enable-background:new 0 0 250.5 250.7;" xml:space="preserve">
<style type="text/css">
	.st0{fill:#5E648E;}
	.st1{fill:#DDDBAB;}
	.st2{fill:#4C4C4C;}
	.st3{fill:none;}
	.st4{fill:#FFFFFF;}
	.st5{fill:#F94646;}
</style>
<circle class="st0" cx="125.3" cy="126.2" r="100"/>
<g>
	<path class="st1" d="M196.8,124l-3-0.5c2.2-13.5,7.6-58-15.5-62.3c-24.1-4.5-54.9-4-55.2-4l-0.1-3c0.3,0,31.4-0.5,55.8,4.1
		C204.7,63.1,199.1,109.8,196.8,124z"/>
</g>
<g>
	<path class="st2" d="M119.3,58.2c0-3.4,2.6-6.1,6-6.1s6,2.7,6,6.1v1.1c2,0.2,3,0.3,4,0.6v-1.6c0-5.6-4.4-10.1-10-10.1
		s-10,4.5-10,10.1v1.2c2-0.2,3-0.3,4-0.4V58.2z"/>
	<path class="st3" d="M143.5,88.9c-5.2-2.4-11-3.7-17.1-3.7c-6.2,0-12,1.4-17.3,3.8c-8.7,4-15.7,11-19.8,19.6
		c-2.5,5.3-4,11.3-4,17.6c0,6,1.3,11.8,3.7,17c4,8.8,11,15.9,19.8,20.1c5.3,2.5,11.3,3.9,17.6,3.9c6.2,0,12.1-1.4,17.4-3.9
		c8.8-4.1,15.9-11.3,19.9-20.1c2.4-5.2,3.7-11,3.7-17.1c0-6.3-1.4-12.3-4-17.7C159.3,99.9,152.2,92.9,143.5,88.9z"/>
	<path class="st3" d="M125.3,52.1c-3.4,0-6,2.7-6,6.1V59c2-0.1,3-0.2,4.6-0.2c2.5,0,5.4,0.1,7.4,0.4v-1.1
		C131.3,54.8,128.7,52.1,125.3,52.1z"/>
	<path class="st4" d="M163.4,108.5l21.7-10.1c-6.2-14.1-17.2-25.6-30.9-32.5l-10.7,23C152.2,92.9,159.3,99.9,163.4,108.5z"/>
	<path class="st4" d="M109.2,89L97.7,64.4c-14.7,6.4-26.6,18-33.5,32.5l25.2,11.7C93.5,100,100.5,93,109.2,89z"/>
	<path class="st4" d="M143.8,163.3l10,21.6c13.6-6.8,24.6-18,30.9-31.9l-21-9.8C159.7,152.1,152.6,159.2,143.8,163.3z"/>
	<path class="st4" d="M89.1,143.1l-24.5,11.4c7,14.2,18.9,25.6,33.5,31.9l10.8-23.2C100.1,159.1,93.1,151.9,89.1,143.1z"/>
	<path class="st5" d="M185.1,98.4l-21.7,10.1c2.6,5.4,4,11.3,4,17.7c0,6.1-1.3,11.9-3.7,17.1l21,9.8c3.9-8.4,6.1-17.8,6.1-27.7
		C190.8,115.7,188.8,106.6,185.1,98.4z"/>
	<path class="st5" d="M126.4,85.2c6.1,0,11.9,1.3,17.1,3.7l10.7-23c-5.7-2.9-11.9-5-18.4-6.1c-1.3-0.2-2.7-0.4-4-0.6
		c-2.5-0.3-5-0.4-7.5-0.4c-1.6,0-3.2,0.1-4.8,0.2c-1.3,0.1-2.7,0.2-4,0.4c-6.3,0.8-12.3,2.5-17.9,5L109.1,89
		C114.4,86.5,120.3,85.2,126.4,85.2z"/>
	<path class="st5" d="M126.4,167.2c-6.3,0-12.2-1.4-17.6-3.9L98,186.5c8.1,3.5,16.9,5.4,26.2,5.4c10.6,0,20.6-2.5,29.5-6.9l-10-21.6
		C138.5,165.8,132.6,167.2,126.4,167.2z"/>
	<path class="st5" d="M85.4,126.2c0-6.3,1.4-12.2,4-17.6L64.2,96.9c-4.1,8.6-6.4,18.3-6.4,28.4c0,10.5,2.4,20.4,6.8,29.3l24.5-11.4
		C86.7,138,85.4,132.2,85.4,126.2z"/>
</g>
<g>
	<path class="st1" d="M51.8,126c-0.3-1.7-6.8-42.7,15.6-59.4C89.5,50.1,124,54,125.5,54.2l-0.4,3c-0.3,0-34.8-3.9-55.9,11.9
		c-20.9,15.5-14.5,56-14.4,56.4L51.8,126z"/>
</g>
<path class="st2" d="M57.5,129.8c-3.4,0-6.1-2.6-6.1-6s2.7-6,6.1-6h1.1c0.2-2,0.3-3,0.6-4h-1.6c-5.6,0-10.1,4.4-10.1,10
	c0,5.6,4.5,10,10.1,10h1.2c-0.2-2-0.3-3-0.4-4H57.5z"/>
<path class="st2" d="M191.1,119.8c3.4,0,6.1,2.6,6.1,6c0,3.4-2.7,6-6.1,6H190c-0.2,2-0.3,3-0.6,4h1.6c5.6,0,10.1-4.4,10.1-10
	s-4.5-10-10.1-10h-1.2c0.2,2,0.3,3,0.4,4H191.1z"/>
<g>
	<path class="st1" d="M124.1,197c-0.3,0-33.8-3.8-58-7.3c-4.3-0.6-7.8-2.8-10.5-6.6c-11.8-16.5-4.1-57.9-3.8-59.7l2.9,0.6
		c-0.1,0.4-7.7,42,3.3,57.4c2.2,3.1,5,4.9,8.4,5.4c24.2,3.5,57.6,7.2,58,7.2L124.1,197z"/>
</g>
<path class="st2" d="M130.3,192.6c0,3.4-2.6,6.1-6,6.1s-6-2.7-6-6.1v-1.1c-2-0.2-3-0.3-4-0.6v1.6c0,5.6,4.4,10.1,10,10.1
	s10-4.5,10-10.1v-1.2c-2,0.2-3,0.3-4,0.4V192.6z"/>
<g>
	<path class="st1" d="M162,200.7c-17.2,0-37.1-3.1-40.7-3.7l0.5-3c22.4,3.6,59.3,6.4,63.2-1.4c3.5-7.1,5.3-31,6.6-48.5
		c1-12.7,1.5-19.5,2.4-21.3l2.7,1.2c-0.7,1.5-1.4,11-2.1,20.3c-1.4,18.7-3.2,42-6.9,49.6C185.1,199.1,174.3,200.7,162,200.7z"/>
</g>
</svg>
