<?xml version="1.0" encoding="utf-8"?>
<!-- Generator: Adobe Illustrator 23.0.1, SVG Export Plug-In . SVG Version: 6.00 Build 0)  -->
<svg version="1.1" id="Layer_1" xmlns="http://www.w3.org/2000/svg" xmlns:xlink="http://www.w3.org/1999/xlink" x="0px" y="0px"
	 viewBox="0 0 128 128" style="enable-background:new 0 0 128 128;" xml:space="preserve">
<style type="text/css">
	.st0{fill:#FFA348;}
</style>
<g>
	<path class="st0" d="M41.6,77.9c-1.5-2.4-2.5-5-3.1-7.7h-4.9V58.7h4.9c0.7-3.1,1.9-6,3.6-8.7l-7.3-7.3l7.7-7.7l7.3,7.3
		c2.5-1.7,5.2-2.8,8-3.5v-4.9h13.1v4.9c2.5,0.6,4.9,1.6,7.1,3l19.8-19.8c-9.2-7.3-20.8-11.6-33.5-11.6c-29.8,0-54,24.2-54,54
		c0,12.6,4.4,24.3,11.6,33.5L41.6,77.9z"/>
	<path class="st0" d="M106.8,31L86.9,50.8c1.5,2.5,2.5,5.1,3.1,7.8h4.9v11.6h-4.9c-0.7,3-1.9,5.9-3.7,8.6l7.4,7.4L86,93.9l-7.5-7.5
		c-2.4,1.6-5.1,2.7-7.8,3.4v5.3H57.6v-5.3c-2.4-0.6-4.7-1.6-6.9-2.8l-19.8,19.8c9.2,7.2,20.7,11.5,33.3,11.5c29.8,0,54-24.2,54-54
		C118.2,51.7,113.9,40.2,106.8,31z"/>
</g>
</svg>
