<?xml version="1.0" encoding="utf-8"?>
<!-- Generator: Adobe Illustrator 23.0.1, SVG Export Plug-In . SVG Version: 6.00 Build 0)  -->
<svg version="1.1" id="Layer_1" xmlns="http://www.w3.org/2000/svg" xmlns:xlink="http://www.w3.org/1999/xlink" x="0px" y="0px"
	 viewBox="0 0 128 128" style="enable-background:new 0 0 128 128;" xml:space="preserve">
<style type="text/css">
	.st0{fill:#A2D950;}
	.st1{clip-path:url(#SVGID_2_);}
	.st2{fill:#FEFEFE;}
</style>
<rect x="20.1" y="20.4" class="st0" width="89.5" height="87.8"/>
<g>
	<g>
		<g>
			<defs>
				<path id="SVGID_1_" d="M103.6,113.8H25.5c-5.7,0-10.4-4.7-10.4-10.4V25.2c0-5.7,4.7-10.4,10.4-10.4h78.1
					c5.7,0,10.4,4.7,10.4,10.4v78.1C114,109.1,109.3,113.8,103.6,113.8z"/>
			</defs>
			<clipPath id="SVGID_2_">
				<use xlink:href="#SVGID_1_"  style="overflow:visible;"/>
			</clipPath>
			<g class="st1">
				<g>
					<path class="st0" d="M14.8,14.6c33.1,0,66.2,0,99.2,0c0,33.1,0,66.2,0,99.2c-33.1,0-66.1,0-99.2,0
						C14.8,80.6,14.8,47.6,14.8,14.6z M24.5,30.6c0,0.3-0.1,0.4-0.1,0.5c0,14.8-0.2,29.5,0.1,44.3c0.2,11.9,8.7,21.2,20.4,22.3
						c7.7,0.8,14.2-1.4,19.1-7.7c0.1-0.2,0.3-0.3,0.4-0.3c6.3,6.4,10.2,8.3,17.8,8.2c11.9-0.1,22.2-10.2,22.3-22.1
						c0.1-14.7,0.1-29.4,0.1-44.1c0-0.3-0.1-0.6-0.1-1c-4.2,0-8.4,0-12.5,0c0,0.6,0,1.1,0,1.7c0,14.2,0,28.4,0,42.6
						c0,0.6,0,1.2-0.1,1.8c-0.3,4.8-3.7,8.6-7.9,9.5c-7,1.4-13.1-3.3-13.1-10.4c-0.1-6.4-0.1-12.9-0.1-19.3c0-8.3,0-16.5,0-24.7
						c0-0.9-0.2-1.2-1.1-1.2c-3.5,0.1-7,0-10.4,0c-0.3,0-0.6,0.1-1,0.2c0,2.8,0,5.5,0,8.1c0,12.2,0,24.4,0,36.6c0,5.7-3.7,10.2-9,11
						c-5.7,0.8-10.6-1.5-11.7-8c-0.4-2.6-0.7-5.2-0.7-7.9c-0.1-12.8-0.1-25.5-0.1-38.3c0-0.5,0-1,0-1.5
						C32.6,30.6,28.6,30.6,24.5,30.6z"/>
					<path class="st2" d="M14.8,14.6c0,33,0,66.1,0,99.2c33.2,0,66.2,0,99.2,0c-0.3,0.1-0.7,0.3-1,0.3c-14.1,0-28.3,0-42.4,0
						c-18.7,0-37.3,0-56.1,0c0-32.8,0-65.6,0-98.4C14.5,15.3,14.7,14.9,14.8,14.6z"/>
					<path class="st2" d="M24.5,30.6c4,0,8.1,0,12.3,0c0,0.5,0,1,0,1.5c0,12.8,0,25.5,0.1,38.3c0,2.6,0.3,5.3,0.7,7.9
						c1,6.5,5.9,8.8,11.7,8c5.3-0.8,9-5.3,9-11c0-12.2,0-24.4,0-36.6c0-2.7,0-5.4,0-8.1c0.4-0.1,0.7-0.2,1-0.2c3.5,0,7,0,10.4,0
						c1,0,1.1,0.3,1.1,1.2c0,8.3,0,16.5,0,24.7c0,6.4-0.1,12.9,0.1,19.3C71,82.7,77.1,87.5,84,86c4.3-0.9,7.5-4.8,7.9-9.5
						c0.1-0.6,0.1-1.2,0.1-1.8c0-14.2,0-28.4,0-42.6c0-0.5,0-1,0-1.7c4.2,0,8.4,0,12.5,0c0,0.3,0.1,0.6,0.1,1
						c0,14.7,0.1,29.4-0.1,44.1c-0.1,11.9-10.4,22-22.3,22.1c-7.7,0.1-11.6-1.7-17.8-8.2c-0.2,0.1-0.3,0.3-0.4,0.3
						c-4.9,6.3-11.5,8.4-19.1,7.7c-11.6-1.1-20.1-10.3-20.4-22.3c-0.3-14.7-0.1-29.5-0.1-44.3C24.5,31,24.5,30.9,24.5,30.6z"/>
				</g>
			</g>
		</g>
	</g>
</g>
</svg>
